<svg width="102" height="103" viewBox="0 0 102 103" fill="none" xmlns="http://www.w3.org/2000/svg">
<circle cx="51" cy="51.2695" r="51" fill="#FCFCFC"/>
<path d="M48.7485 25.6425C42.2861 26.8691 37.9056 33.0326 38.8745 39.5157C39.1115 41.0411 39.6475 42.6077 40.369 43.8239C40.5442 44.1228 40.6885 44.3908 40.6885 44.4114C40.6885 44.4424 38.6683 44.463 36.205 44.463C33.1438 44.463 31.6493 44.5042 31.4844 44.5763C31.3401 44.6382 31.1752 44.8031 31.1134 44.9474C31.0412 45.1123 31 46.4419 31 49.0599V52.9249L31.2577 53.1723C31.4844 53.4094 31.5875 53.43 32.4842 53.43H33.4634L33.4943 55.8109C33.5252 58.1712 33.5252 58.1918 33.7726 58.3876C34.0921 58.6453 34.6486 58.6453 34.9166 58.3773C35.1125 58.1815 35.1228 58.0372 35.1228 55.8006V53.43H50.9954H66.868V55.8006C66.868 58.0372 66.8784 58.1815 67.0742 58.3773C67.3422 58.6453 67.8987 58.6453 68.2183 58.3876C68.4656 58.1918 68.4656 58.1712 68.4965 55.8109L68.5275 53.43H69.5066C70.4033 53.43 70.5064 53.4094 70.7331 53.1723L70.9908 52.9249V49.0599C70.9908 46.4419 70.9496 45.1123 70.8774 44.9474C70.8156 44.8031 70.6507 44.6382 70.5064 44.5763C70.3415 44.5042 68.847 44.463 65.7858 44.463C63.3225 44.463 61.3023 44.4424 61.3023 44.4217C61.3023 44.3908 61.4672 44.0919 61.6631 43.7518C63.8893 39.9588 63.7347 34.8054 61.2714 31.0228C60.0758 29.1984 58.3236 27.6627 56.3138 26.6835C54.5513 25.8281 53.5 25.5807 51.3046 25.5395C50.0575 25.5189 49.2638 25.5498 48.7485 25.6425ZM53.0053 27.3123C54.8811 27.673 56.7054 28.6006 58.1278 29.9199C59.1482 30.8682 59.8078 31.7339 60.4056 32.8986C61.2714 34.5993 61.56 35.8258 61.5497 37.815C61.5394 39.0209 61.4878 39.4229 61.2611 40.2887C60.9622 41.443 60.1789 43.1128 59.5811 43.8961L59.1791 44.4114L57.664 44.4424L56.1489 44.4733L56.9013 43.7209C58.6741 41.9584 59.5398 39.7321 59.4058 37.2997C59.2719 34.6817 58.1175 32.507 56.0561 30.9403C54.5925 29.8375 52.9743 29.3118 50.9954 29.3118C49.0165 29.3118 47.3983 29.8375 45.9347 30.9403C43.8733 32.507 42.719 34.6817 42.585 37.2997C42.451 39.7321 43.3168 41.9584 45.0895 43.7209L45.8419 44.4733L44.3268 44.4424L42.8117 44.4114L42.4097 43.8961C41.8119 43.1128 41.0286 41.443 40.7297 40.2887C40.503 39.4229 40.4514 39.0209 40.4411 37.815C40.4308 35.9082 40.7091 34.6302 41.4924 33.0738C42.0387 31.971 42.5128 31.301 43.4198 30.3631C45.8935 27.7761 49.4597 26.6423 53.0053 27.3123ZM52.593 31.1258C54.809 31.6515 56.7157 33.4243 57.4475 35.6609C57.7052 36.4648 57.7464 36.7225 57.7361 37.7635C57.7361 38.7839 57.6949 39.0621 57.4475 39.7733C57.0662 40.8762 56.5508 41.7007 55.7366 42.5047C54.9533 43.2777 54.2112 43.7415 53.1392 44.1331C52.459 44.3805 52.2425 44.4114 50.9954 44.4114C49.7483 44.4114 49.5318 44.3805 48.8516 44.1331C47.7796 43.7415 47.0376 43.2777 46.2542 42.4943C45.4606 41.7213 44.9143 40.8349 44.5227 39.7321C44.2856 39.0518 44.2547 38.7839 44.2547 37.7119C44.2547 36.6503 44.2959 36.3617 44.5433 35.6299C45.1102 33.8984 46.3985 32.4245 48.0579 31.6309C49.5834 30.8888 50.9645 30.7445 52.593 31.1258ZM69.3417 48.9465V51.7809H50.9954H32.6491V48.9465V46.1121H50.9954H69.3417V48.9465Z" fill="#C0304F"/>
<path d="M50.4698 32.3935C50.2843 32.5481 50.2121 32.7233 50.1709 33.1768C50.1193 33.754 50.109 33.7643 49.7174 33.8983C48.7485 34.2281 48.2126 34.9496 48.1404 35.9803C48.0992 36.609 48.1198 36.743 48.3878 37.2378C48.563 37.5676 48.8516 37.918 49.1196 38.1138C49.5319 38.4024 49.6452 38.4334 50.6141 38.4849C51.1913 38.5158 51.7685 38.5983 51.8921 38.6704C52.3766 38.9384 52.2838 39.732 51.7581 39.9279C51.6138 39.9897 50.8408 40.0309 50.0266 40.0309C48.6248 40.0309 48.5424 40.0412 48.3362 40.268C48.058 40.5669 48.0477 41.0616 48.3053 41.3811C48.4805 41.5976 48.6145 41.6285 49.336 41.6594L50.1709 41.7007V42.216C50.1709 42.8344 50.4904 43.2261 50.9954 43.2261C51.5211 43.2261 51.82 42.8344 51.82 42.1438C51.82 41.6182 51.8406 41.577 52.057 41.577C52.3766 41.577 53.1805 41.0616 53.4382 40.6906C53.9432 39.9588 54.0154 39.0415 53.634 38.2066C53.1908 37.2584 52.325 36.8358 50.8408 36.8358C50.3049 36.8358 50.1297 36.7946 49.9647 36.6297C49.6865 36.3514 49.7071 35.9494 50.0163 35.6505C50.2533 35.4031 50.3049 35.3928 51.8509 35.3928C53.3763 35.3928 53.4382 35.3825 53.6546 35.1558C53.9638 34.8259 53.9535 34.3209 53.6237 34.0014C53.4072 33.7746 53.2836 33.7437 52.593 33.7437H51.82V33.2284C51.82 32.8058 51.7685 32.6512 51.5623 32.4554C51.2634 32.1461 50.7996 32.1152 50.4698 32.3935Z" fill="#C0304F"/>
<path d="M45.3782 58.1608C42.8839 58.8823 41.3894 61.459 41.9666 64.0667C42.2655 65.4169 42.5231 65.7261 46.7593 69.9622C50.3564 73.5594 50.6656 73.8376 50.9954 73.8376C51.3252 73.8376 51.6344 73.5594 55.2006 69.9932C57.3136 67.8906 59.1791 65.9529 59.344 65.7055C60.3335 64.2213 60.4262 62.0878 59.5708 60.5005C59.21 59.8512 58.2824 58.9235 57.6228 58.5628C56.2004 57.7795 54.3452 57.7692 52.8507 58.5319C52.5724 58.6762 52.0364 59.0782 51.6654 59.4183L50.9954 60.0573L50.3461 59.4389C49.3051 58.4391 48.1198 57.9547 46.7181 57.9753C46.3264 57.9753 45.7183 58.0578 45.3782 58.1608ZM47.9755 59.8306C48.4393 60.0161 48.7691 60.2634 49.5834 61.0468C50.9748 62.397 51.016 62.397 52.4075 61.0468C53.6546 59.8306 54.2215 59.5626 55.3759 59.6347C56.6024 59.7172 57.5918 60.3768 58.1793 61.5003C58.4267 61.9641 58.4679 62.1599 58.4679 62.9123C58.4679 64.3553 58.4473 64.3862 54.4482 68.375L50.9954 71.8278L47.5014 68.3234C43.5435 64.345 43.5332 64.3244 43.5229 62.9639C43.5229 62.2836 43.5744 62.0362 43.7909 61.5724C44.2032 60.6963 45.0277 59.9955 45.945 59.7069C46.4604 59.5523 47.3674 59.6141 47.9755 59.8306Z" fill="#C0304F"/>
<path d="M33.721 60.8612C33.5355 61.0673 33.5252 61.3662 33.5252 69.4571C33.5252 77.548 33.5355 77.8469 33.721 78.0531L33.9169 78.2695H50.9954H68.074L68.2698 78.0531C68.4553 77.8469 68.4656 77.548 68.4656 69.4571C68.4656 61.3662 68.4553 61.0673 68.2698 60.8612C68.0018 60.5726 67.3628 60.5623 67.0742 60.8509C66.8681 61.057 66.8681 61.191 66.8681 68.8902V76.7235H50.9954H35.1228V68.8902C35.1228 61.191 35.1228 61.057 34.9166 60.8509C34.628 60.5623 33.989 60.5726 33.721 60.8612Z" fill="#C0304F"/>
</svg>
